<?xml version="1.0" encoding="UTF-8"?>
<svg width="18px" height="18px" viewBox="0 0 18 18" version="1.1" xmlns="http://www.w3.org/2000/svg" xmlns:xlink="http://www.w3.org/1999/xlink">
    <!-- Generator: Sketch 42 (36781) - http://www.bohemiancoding.com/sketch -->
    <title>android-search-input-icon</title>
    <desc>Created with Sketch.</desc>
    <defs></defs>
    <g id="components" stroke="none" stroke-width="1" fill="none" fill-rule="evenodd" opacity="0.54">
        <g id="material-search" transform="translate(-52.000000, -41.000000)" fill="#000000">
            <g id="search" transform="translate(33.000000, 26.000000)">
                <g id="Material/Icons-black/search" transform="translate(16.000000, 12.000000)">
                    <path d="M15.502,9.491 L14.708,9.491 L14.432,9.765 C15.407,10.902 16,12.376 16,13.991 C16,17.581 13.09,20.491 9.5,20.491 C5.91,20.491 3,17.581 3,13.991 C3,10.401 5.91,7.491 9.5,7.491 C11.115,7.491 12.588,8.083 13.725,9.057 L14.001,8.783 L14.001,7.991 L18.999,3 L20.49,4.491 L15.502,9.491 L15.502,9.491 Z M9.5,9.491 C7.014,9.491 5,11.505 5,13.991 C5,16.476 7.014,18.491 9.5,18.491 C11.985,18.491 14,16.476 14,13.991 C14,11.505 11.985,9.491 9.5,9.491 L9.5,9.491 Z" id="Shape" transform="translate(11.745000, 11.745500) scale(1, -1) translate(-11.745000, -11.745500) "></path>
                </g>
            </g>
        </g>
    </g>
</svg>